<svg class="TopNav__Logo TopNav__Logo--Inline" width="342" height="49" viewBox="0 0 342 49" fill="none" xmlns="http://www.w3.org/2000/svg">
    <path d="m94.728 47.82-4.642-20.005-4.474 20.005-10.057.014-8.258-37.782 10.335-.002 3.635 19.007L85.3 10.05l9.621.002 4.266 18.992 4.005-18.992h10.168l-8.574 37.773-10.059-.005Zm81.992.01h10.677v-36.6H176.72v36.6Zm102.586.037h10.679V11.256h-10.679v36.611Zm-67.558-24.823c0-4.935-2.232-5.936-5.828-5.936-4.069 0-5.426 1.862-5.645 6.296-.101 1.853-.032 2.094-.032 2.094l11.522.018-.017-2.472Zm-11.542 9.292c0 3.738.615 6.045 2.574 6.98 1.099.466 3.102.804 4.983.804 3.687 0 8.484-.548 12.693-2.212v8.53c-5.289 1.716-9.755 2.215-13.911 2.215-5.881 0-10.113-1.246-12.702-3.66-3.293-3.036-4.391-8.096-4.391-15.802 0-6.85.706-11.442 3.136-14.868 2.352-3.348 6.665-5.139 13.565-5.139 6.506 0 10.351 1.636 12.622 4.827 2.433 3.504 2.745 8.407 2.745 13.39l-.04 4.982-20.773-.047h-.501ZM164.492 48.77c-12.858 0-16.349-4.997-16.349-19.747 0-15.533 3.809-19.826 17.064-19.826 4.419.054 8.362 1.352 9.255 1.847l.002 9.163c-2.284-1.015-5.343-2.124-9.099-2.19-3.731 0-5.703.964-6.1 3.774-.397 2.498-.476 5.855-.476 7.258 0 2.264.158 4.45.477 6.557.475 2.81 2.448 4.265 6.179 4.265 2.619 0 5.794-.312 9.047-1.326l-.013 9.037c-3.604 1.04-6.971 1.188-9.987 1.188ZM176.72 5.93v3.23h10.677V2.406c-5.248-.19-9.665 2.786-10.677 3.526Zm102.586.075v3.219h10.68V2.444c-5.308-.173-9.759 2.883-10.68 3.562Zm-34.48 3.669c-4.405 0-7.945 1.951-10.384 3.668l-1.041-3.1c-4.723.043-8.663 2.611-9.815 3.442v34.157h10.588l-.026-25.355c1.418-.937 4.989-2.431 6.879-2.431 3.069 0 3.837 2.595 3.837 5.015l-.012 22.778 10.123-.007V20.134c0-4.215-2.596-10.46-10.149-10.46ZM58.08 23.242c0-4.95-2.232-5.954-5.826-5.954-4.069 0-5.426 1.868-5.646 6.314-.101 1.859-.03 2.1-.03 2.1l11.52.019-.018-2.48Zm-11.54 9.317c0 3.747.615 6.06 2.574 6.997 1.098.468 3.101.807 4.983.807 3.685 0 8.484-.55 12.693-2.218v8.553c-5.29 1.721-9.756 2.22-13.912 2.22-5.88 0-10.114-1.25-12.701-3.669-3.292-3.044-4.391-8.117-4.391-15.844 0-6.869.705-11.474 3.136-14.908 2.352-3.356 6.665-5.152 13.565-5.152 6.506 0 10.35 1.64 12.623 4.84 2.43 3.513 2.744 8.429 2.744 13.424l-.04 4.996-20.773-.047h-.5Zm82.823 5.882c4.949-.175 5.439-2.895 5.421-4.058-.053-3.291-3.272-4.383-9.117-6.366l-.371-.125c-5.365-1.876-10.437-3.649-10.571-12.008-.089-5.621 1.05-9.44 3.587-12.017 2.528-2.567 6.546-3.87 11.945-3.87 3.744 0 10.687.797 14.045 2.497l-.004 10.636c-2.788-1.372-8.268-3.188-13.337-3.077-3.502.075-5.114 1.347-5.072 4.001.041 2.49 2.231 3.25 5.548 4.398 1.854.642 4.162 1.442 6.76 2.753 4.77 2.49 7.909 4.682 8.028 12.116.079 4.91-1.144 8.684-3.634 11.215-2.732 2.774-7.106 4.181-13.001 4.181-6.513 0-11.987-1.704-14.836-2.797l-.001-10.429c3.855 2.126 8.877 3.152 14.61 2.95Zm175.97 10.282c-5.47 0-10.246-1.247-13.277-2.336l-.001-9.15c3.386 1.885 8.084 2.761 13.266 2.594 3.086-.099 4.354-1.303 4.326-2.86-.042-2.413-2.91-3.191-8.168-4.826-4.863-1.556-9.328-3.034-9.448-9.883-.108-6.225 1.677-12.996 13.883-12.996 3.567 0 9.778.715 12.591 2.122l-.005 9.272c-2.068-1.056-7.412-2.773-12.131-2.68-3.09.063-4.048 1.104-4.019 2.816.048 2.724 4.403 2.49 10.635 5.37 4.397 2.101 7.085 3.957 7.19 9.95.147 8.482-4.854 12.606-14.842 12.606Zm-33.41-9.157c-4.481.123-3.889-3.647-3.901-6.29-.014-2.644.013-13.852.013-13.852h9.015l.006-8.181-9.045.016-.019-10.568c-5.678-.12-10.341 3.421-10.681 3.685v5.993l-.006.872s-.862.483-1.305.8c-.444.316-.673.49-.673.49l2.014 6.957-.029 17.678c0 10.378 4.737 11.54 10.357 11.54 3.451 0 6.904-.62 9.393-1.317V38.56a13.797 13.797 0 0 1-5.139 1.005Zm64.939.134c-4.479.123-3.89-3.647-3.901-6.29-.012-2.645.013-13.852.013-13.852h9.015l.006-8.182-9.044.017L332.93.825c-5.677-.12-10.339 3.42-10.679 3.685v5.993l-.006.872s-.864.483-1.305.8c-.444.316-.673.49-.673.49l2.014 6.957-.03 17.677c0 10.379 4.738 11.54 10.357 11.54 3.452 0 6.905-.619 9.393-1.318v-8.827a13.757 13.757 0 0 1-5.139 1.007ZM23.032.751l-.013 24.905L10.58.856C5.148.757.652 4.007 0 4.5v43.33l10.798.001.007-23.66 12.367 23.665h.125l10.402-.002V.748L23.032.751" fill="#000"></path>
</svg>